<!DOCTYPE svg PUBLIC "-//W3C//DTD SVG 1.1//EN" "http://www.w3.org/Graphics/SVG/1.1/DTD/svg11.dtd">
<!-- Uploaded to: SVG Repo, www.svgrepo.com, Transformed by: SVG Repo Mixer Tools -->
<svg height="233px" width="233px" version="1.1" id="Layer_1" xmlns="http://www.w3.org/2000/svg" xmlns:xlink="http://www.w3.org/1999/xlink" viewBox="0 0 512.00 512.00" xml:space="preserve" fill="#ffffff" stroke="#ffffff" stroke-width="0.0051200099999999995">
<g id="SVGRepo_bgCarrier" stroke-width="0"/>
<g id="SVGRepo_tracerCarrier" stroke-linecap="round" stroke-linejoin="round" stroke="#CCCCCC" stroke-width="6.144011999999999"/>
<g id="SVGRepo_iconCarrier"> <path style="fill:#92f7d0;" d="M255.999,308.822c-46.437,0-84.217-37.779-84.217-84.217V84.217C171.782,37.78,209.563,0,255.999,0 s84.217,37.78,84.217,84.217v140.388C340.218,271.044,302.437,308.822,255.999,308.822z"/> <g> <path style="fill:#38d7ff;" d="M255.999,0c-0.001,0-0.003,0-0.004,0v308.822c0.001,0,0.003,0,0.004,0 c46.437,0,84.217-37.779,84.217-84.217V84.217C340.218,37.78,302.437,0,255.999,0z"/> <path style="fill:#38d7ff;" d="M401.561,224.607c0-10.938-8.868-19.806-19.806-19.806s-19.806,8.868-19.806,19.806 c0,58.42-47.528,105.948-105.948,105.948s-105.948-47.528-105.948-105.948c0-10.938-8.868-19.806-19.806-19.806 s-19.806,8.868-19.806,19.806c0,73.545,54.829,134.515,125.754,144.208v40.278c-37.593,8.959-65.641,42.806-65.641,83.103 c0,10.938,8.868,19.806,19.806,19.806h131.276c10.938,0,19.806-8.868,19.806-19.806c0-40.294-28.044-74.14-65.634-83.101v-40.279 C346.732,359.121,401.561,298.151,401.561,224.607z"/> </g> <g> <path style="fill:#000000;" d="M340.218,134.605h-59.68c-10.938,0-19.806,8.868-19.806,19.806c0,10.938,8.868,19.806,19.806,19.806 h59.68V134.605z"/> <path style="fill:#000000;" d="M280.538,195.949c-10.938,0-19.806,8.868-19.806,19.806c0,10.938,8.868,19.806,19.806,19.806h58.943 c0.469-3.589,0.735-7.241,0.735-10.955v-28.657H280.538z"/> <path style="fill:#000000;" d="M260.732,93.068c0,10.938,8.868,19.806,19.806,19.806h59.68V84.217 c0-3.714-0.267-7.367-0.735-10.955h-58.943C269.6,73.262,260.732,82.129,260.732,93.068z"/> </g> <path style="fill:#004f9e;" d="M401.561,224.607c0-10.938-8.868-19.806-19.806-19.806s-19.806,8.868-19.806,19.806 c0,58.42-47.528,105.948-105.948,105.948c-0.001,0-0.003,0-0.004,0V512h65.639c10.938,0,19.806-8.868,19.806-19.806 c0-40.294-28.044-74.14-65.634-83.101v-40.279C346.732,359.121,401.561,298.151,401.561,224.607z"/> </g>
</svg>